#!OML:ASF X:\für Bonn\!DataBase\2005_08_12_Daniel\c3d\Daniel.ASF
:FULLY-SPECIFIED
:DEGREES
48
root -0.120403 10.6158 -0.721953 13.9934 -86.5823 -38.2874
lowerback 51.5072 -3.83822 5.59757
upperback 2.42093 -3.26017 -3.36516
thorax -18.9097 -2.15666 -4.6617
lowerneck 3.68513 0.586538 -1.23651
upperneck -0.00860117 0.739284 1.80813
head -0.623832 0.348091 0.745924
rclavicle -1.2921e-014 -2.54444e-014
rhumerus 66.1417 2.50815 -92.865
rradius 5.05537
rwrist 59.2485
rhand -17.5632 6.07509
rfingers 7.12502
rthumb 8.69189 -23.726
lclavicle -1.2921e-014 -2.54444e-014
lhumerus 65.6814 5.9763 108.536
lradius 9.65779
lwrist -89.8414
lhand -16.1673 -2.10906
lfingers 7.12502
lthumb 10.0387 27.6315
rfemur -39.589 -37.687 -7.81261
rtibia 121.42
rfoot -17.1455 36.7462
rtoes -6.33267
lfemur -46.5729 27.2344 5.56556
ltibia 121.639
lfoot -24.17 -38.6444
ltoes 4.09879
49
root -0.112082 10.4179 -0.725407 14.9078 -86.5465 -39.5923
lowerback 52.0571 -3.89302 5.67549
upperback 2.44922 -3.27275 -3.35782
thorax -18.9542 -2.17207 -4.66965
lowerneck 3.87032 0.609539 -1.27758
upperneck -0.0950973 0.767499 1.82773
head -0.682696 0.360891 0.758576
rclavicle -5.56597e-015 -3.02153e-014
rhumerus 66.3594 2.47552 -92.8329
rradius 5.13307
rwrist 59.2146
rhand -17.6492 6.16323
rfingers 7.12502
rthumb 8.60887 -23.6412
lclavicle -5.56597e-015 -3.02153e-014
lhumerus 65.9079 6.06928 108.915
lradius 9.71948
lwrist -90.1934
lhand -16.2949 -2.2594
lfingers 7.12502
lthumb 9.91569 27.4871
rfemur -39.5417 -39.7762 -9.9427
rtibia 123.192
rfoot -16.2958 38.7306
rtoes -5.88722
lfemur -47.1693 29.2617 7.2325
ltibia 123.378
lfoot -23.3352 -40.6494
ltoes 4.59969
50
root -0.104812 10.2199 -0.728522 15.8384 -86.5145 -40.9264
lowerback 52.6079 -3.94442 5.74624
upperback 2.48396 -3.28426 -3.34473
thorax -18.986 -2.18657 -4.66784
lowerneck 3.97602 0.632725 -1.30624
upperneck -0.118324 0.796161 1.83673
head -0.708485 0.374468 0.76572
rclavicle 1.53064e-014 1.43125e-014
rhumerus 66.5866 2.453 -92.795
rradius 5.19415
rwrist 59.1808
rhand -17.7485 6.2365
rfingers 7.12502
rthumb 8.51305 -23.5719
lclavicle 1.53064e-014 1.43125e-014
lhumerus 66.1375 6.18438 109.293
lradius 9.80138
lwrist -90.5738
lhand -16.3758 -2.37269
lfingers 7.12502
lthumb 9.83756 27.3775
rfemur -39.2451 -42.011 -12.4013
rtibia 124.942
rfoot -15.4046 40.8175
rtoes -5.41407
lfemur -47.6496 31.4597 9.07462
ltibia 125.082
lfoot -22.5131 -42.7544
ltoes 4.95123
51
root -0.0971523 10.021 -0.732085 16.7296 -86.4494 -42.2088
lowerback 53.1422 -4.02075 5.84557
upperback 2.51535 -3.30825 -3.33169
thorax -19.0175 -2.20776 -4.67286
lowerneck 4.04998 0.658654 -1.3936
upperneck -0.127435 0.826385 1.88812
head -0.725385 0.388614 0.795865
rclavicle -1.33186e-014 -7.95139e-015
rhumerus 66.8438 2.42834 -92.7539
rradius 5.25068
rwrist 59.0848
rhand -17.8227 6.32675
rfingers 7.12502
rthumb 8.44143 -23.4845
lclavicle -1.33186e-014 -7.95139e-015
lhumerus 66.3544 6.30379 109.67
lradius 9.89374
lwrist -90.8861
lhand -16.4159 -2.54352
lfingers 7.12502
lthumb 9.79893 27.2085
rfemur -38.6516 -44.4291 -15.2528
rtibia 126.668
rfoot -14.3669 43.0903
rtoes -4.87912
lfemur -48.0979 33.7443 11.0627
ltibia 126.766
lfoot -21.53 -44.9222
ltoes 5.38878
52
root -0.0915938 9.82276 -0.735676 17.4431 -86.4143 -43.3355
lowerback 53.6879 -4.07356 5.9159
upperback 2.54309 -3.32151 -3.32675
thorax -19.051 -2.22328 -4.67931
lowerneck 4.1192 0.677541 -1.42722
upperneck -0.117298 0.849037 1.91759
head -0.734836 0.399125 0.810247
rclavicle 9.93923e-015 -7.95139e-016
rhumerus 67.0957 2.37569 -92.7116
rradius 5.29232
rwrist 58.9849
rhand -17.891 6.49053
rfingers 7.12502
rthumb 8.37549 -23.3234
lclavicle 9.93923e-015 -7.95139e-016
lhumerus 66.5917 6.41039 110.042
lradius 9.95445
lwrist -91.2025
lhand -16.4046 -2.70284
lfingers 7.12502
lthumb 9.8098 27.0487
rfemur -37.6477 -46.9386 -18.6118
rtibia 128.36
rfoot -13.3055 45.4916
rtoes -4.34296
lfemur -48.3178 36.2141 13.2776
ltibia 128.41
lfoot -20.4966 -47.2062
ltoes 5.91488
53
root -0.0867568 9.62389 -0.740145 17.7582 -86.3886 -44.0992
lowerback 54.2566 -4.12345 5.9689
upperback 2.57156 -3.34233 -3.32823
thorax -19.084 -2.24113 -4.6806
lowerneck 4.17011 0.702677 -1.46712
upperneck -0.103359 0.879972 1.95522
head -0.740299 0.413788 0.828069
rclavicle 8.34896e-015 2.22639e-014
rhumerus 67.3226 2.33797 -92.6776
rradius 5.36893
rwrist 58.798
rhand -17.912 6.57527
rfingers 7.12502
rthumb 8.35524 -23.2395
lclavicle 8.34896e-015 2.22639e-014
lhumerus 66.8366 6.52587 110.411
lradius 10.0043
lwrist -91.546
lhand -16.451 -2.89879
lfingers 7.12502
lthumb 9.76501 26.8548
rfemur -36.1035 -49.544 -22.6811
rtibia 130.03
rfoot -11.8398 48.1654
rtoes -3.56592
lfemur -48.3172 38.8139 15.7488
ltibia 130.016
lfoot -19.3118 -49.5901
ltoes 6.45221
54
root -0.0828128 9.42537 -0.743882 17.6299 -86.356 -44.4497
lowerback 54.8245 -4.17265 6.00267
upperback 2.62851 -3.37485 -3.31954
thorax -19.0768 -2.26212 -4.65447
lowerneck 4.15776 0.733515 -1.54854
upperneck -0.113416 0.918177 2.00362
head -0.743117 0.432518 0.856219
rclavicle 7.95139e-016 -7.95139e-015
rhumerus 67.523 2.32209 -92.6276
rradius 5.50196
rwrist 58.6423
rhand -17.9155 6.66373
rfingers 7.12502
rthumb 8.35192 -23.1512
lclavicle 7.95139e-016 -7.95139e-015
lhumerus 66.9601 6.29393 109.899
lradius 10.1122
lwrist -90.9006
lhand -16.4518 -2.99442
lfingers 7.12502
lthumb 9.76429 26.7592
rfemur -33.9638 -52.1276 -27.4624
rtibia 131.655
rfoot -10.1656 50.9056
rtoes -2.70182
lfemur -48.0804 41.4709 18.4626
ltibia 131.584
lfoot -17.9535 -52.0554
ltoes 7.07655
55
root -0.0804573 9.22801 -0.748148 17.3564 -86.3229 -44.682
lowerback 55.4481 -4.23207 6.04021
upperback 2.6297 -3.41289 -3.32626
thorax -19.1447 -2.28655 -4.64457
lowerneck 4.25613 0.751718 -1.57951
upperneck -0.130997 0.939949 2.03133
head -0.766185 0.442407 0.869685
rclavicle 1.39149e-014 2.78299e-014
rhumerus 67.5887 2.27567 -92.5937
rradius 5.6681
rwrist 58.4834
rhand -17.944 6.79073
rfingers 7.12502
rthumb 8.32436 -23.0253
lclavicle 1.39149e-014 2.78299e-014
lhumerus 66.9361 6.0506 109.201
lradius 10.2322
lwrist -90.1545
lhand -16.6094 -3.05646
lfingers 7.12502
lthumb 9.61224 26.7042
rfemur -31.0243 -54.6597 -33.12
rtibia 133.243
rfoot -8.38089 53.7285
rtoes -1.81123
lfemur -47.5713 44.1862 21.4975
ltibia 133.116
lfoot -16.3943 -54.5595
ltoes 7.69231
56
root -0.0786406 9.03104 -0.753216 16.7724 -86.3088 -44.6135
lowerback 56.0941 -4.26818 6.02508
upperback 2.61922 -3.44936 -3.31369
thorax -19.2228 -2.3069 -4.5886
lowerneck 4.35659 0.778985 -1.66489
upperneck -0.197756 0.972258 2.07461
head -0.805826 0.45754 0.897148
rclavicle -1.47101e-014 1.59028e-015
rhumerus 67.7306 2.27014 -92.5411
rradius 5.72567
rwrist 58.2906
rhand -17.9813 6.86302
rfingers 7.12502
rthumb 8.28841 -22.9544
lclavicle -1.47101e-014 1.59028e-015
lhumerus 66.9619 5.87404 108.612
lradius 10.3029
lwrist -89.4434
lhand -16.89 -3.16893
lfingers 7.12502
lthumb 9.34149 26.6041
rfemur -27.2611 -57.0641 -39.6995
rtibia 134.829
rfoot -7.27547 56.4979
rtoes -1.28934
lfemur -46.7443 46.9609 24.8669
ltibia 134.62
lfoot -14.9523 -57.0249
ltoes 8.2053
57
root -0.0779771 8.83709 -0.758001 16.2329 -86.2869 -44.6145
lowerback 56.7464 -4.31768 6.03595
upperback 2.6134 -3.49173 -3.32348
thorax -19.2938 -2.33182 -4.56754
lowerneck 4.48936 0.805695 -1.69208
upperneck -0.327495 1.00722 2.10661
head -0.870262 0.473864 0.911294
rclavicle 9.93923e-015 -3.02153e-014
rhumerus 67.8923 2.22286 -92.5078
rradius 5.74273
rwrist 58.1545
rhand -18.1019 6.9069
rfingers 7.12502
rthumb 8.17195 -22.9151
lclavicle 9.93923e-015 -3.02153e-014
lhumerus 66.9834 5.63549 107.886
lradius 10.3395
lwrist -88.6498
lhand -17.246 -3.20166
lfingers 7.12502
lthumb 8.99794 26.5864
rfemur -22.5178 -59.1751 -47.2907
rtibia 136.381
rfoot -6.66349 59.2701
rtoes -0.951454
lfemur -45.572 49.6786 28.6272
ltibia 136.076
lfoot -13.1962 -59.511
ltoes 8.89006
58
root -0.0783707 8.64717 -0.763316 15.5612 -86.2826 -44.4813
lowerback 57.4197 -4.34875 6.01178
upperback 2.57006 -3.52559 -3.31637
thorax -19.4071 -2.35105 -4.51551
lowerneck 4.70748 0.833244 -1.73747
upperneck -0.504038 1.04161 2.13165
head -0.964335 0.489498 0.926458
rclavicle -8.15017e-015 1.11319e-014
rhumerus 68.0179 2.19253 -92.4534
rradius 5.71699
rwrist 58.0457
rhand -18.2957 6.92627
rfingers 7.12502
rthumb 7.98491 -22.9029
lclavicle -8.15017e-015 1.11319e-014
lhumerus 66.989 5.44903 107.202
lradius 10.3133
lwrist -87.8484
lhand -17.6887 -3.23212
lfingers 7.12502
lthumb 8.57073 26.5739
rfemur -17.0461 -60.858 -55.6359
rtibia 137.887
rfoot -6.49678 61.9168
rtoes -0.698643
lfemur -43.9527 52.3504 32.8182
ltibia 137.477
lfoot -11.5506 -61.9493
ltoes 9.29874
59
root -0.0790452 8.46131 -0.768931 14.8073 -86.2573 -44.2783
lowerback 58.0904 -4.39128 5.99743
upperback 2.53765 -3.56844 -3.30782
thorax -19.502 -2.37437 -4.46143
lowerneck 4.92914 0.860653 -1.81816
upperneck -0.755288 1.07574 2.18824
head -1.08376 0.504739 0.957796
rclavicle -2.14687e-014 -1.03368e-014
rhumerus 68.1917 2.16135 -92.3967
rradius 5.6095
rwrist 57.9644
rhand -18.6417 6.97889
rfingers 7.12502
rthumb 7.65095 -22.8627
lclavicle -2.14687e-014 -1.03368e-014
lhumerus 67.0385 5.33397 106.741
lradius 10.2749
lwrist -87.2201
lhand -18.1991 -3.37126
lfingers 7.12502
lthumb 8.07813 26.4543
rfemur -10.8706 -62.0114 -64.6941
rtibia 139.355
rfoot -6.92881 64.5029
rtoes -0.516858
lfemur -42.0182 54.8303 37.3351
ltibia 138.834
lfoot -9.74617 -64.2762
ltoes 9.7719
60
root -0.0807675 8.27858 -0.774984 14.0936 -86.247 -44.1043
lowerback 58.7386 -4.41626 5.97557
upperback 2.50362 -3.59469 -3.29406
thorax -19.5904 -2.39054 -4.40764
lowerneck 5.10354 0.874327 -1.85576
upperneck -0.962548 1.09294 2.19813
head -1.18042 0.512405 0.967483
rclavicle -1.17283e-014 -7.95139e-015
rhumerus 68.3902 2.10219 -92.3165
rradius 5.42822
rwrist 57.8777
rhand -19.0851 7.00963
rfingers 7.12502
rthumb 7.22297 -22.8471
lclavicle -1.17283e-014 -7.95139e-015
lhumerus 67.0777 5.11254 105.975
lradius 10.1983
lwrist -86.2587
lhand -18.6 -3.49293
lfingers 7.12502
lthumb 7.69129 26.3472
rfemur -4.65222 -62.5969 -73.79
rtibia 140.771
rfoot -7.28472 66.936
rtoes -0.179728
lfemur -39.5749 57.1942 42.371
ltibia 140.151
lfoot -8.04722 -66.5304
ltoes 10.1858
